<svg xmlns="http://www.w3.org/2000/svg" viewBox="0 0 24 24" fill="none" stroke="currentColor" stroke-width="1.8" stroke-linecap="round" stroke-linejoin="round">
  <!-- Sine wave -->
  <path d="M2,12 C4,4 8,4 10,12 C12,20 16,20 18,12 C20,4 22,6 22,12"/>
  <!-- Second wave (lighter, offset) -->
  <path d="M2,12 C3.5,8 5.5,8 7,12 C8.5,16 10.5,16 12,12 C13.5,8 15.5,8 17,12 C18.5,16 20.5,16 22,12" opacity="0.4" stroke-width="1.2"/>
  <!-- Axis line -->
  <line x1="2" y1="20" x2="22" y2="20" opacity="0.3" stroke-width="0.8"/>
  <line x1="2" y1="4" x2="2" y2="20" opacity="0.3" stroke-width="0.8"/>
  <!-- Data points -->
  <circle cx="6" cy="6.5" r="1.2" fill="currentColor" stroke="none" opacity="0.7"/>
  <circle cx="10" cy="12" r="1.2" fill="currentColor" stroke="none" opacity="0.7"/>
  <circle cx="14" cy="17.5" r="1.2" fill="currentColor" stroke="none" opacity="0.7"/>
  <circle cx="18" cy="12" r="1.2" fill="currentColor" stroke="none" opacity="0.7"/>
</svg>
